<svg xmlns="http://www.w3.org/2000/svg" xmlns:xlink="http://www.w3.org/1999/xlink" version="1.1" width="256" height="256" viewBox="0 0 256 256" xml:space="preserve">

<defs>
</defs>
<g style="stroke: none; stroke-width: 0; stroke-dasharray: none; stroke-linecap: butt; stroke-linejoin: miter; stroke-miterlimit: 10; fill: none; fill-rule: nonzero; opacity: 1;" transform="translate(1.4065934065934016 1.4065934065934016) scale(2.81 2.81)" >
	<path d="M 58.345 76.714 c -0.598 0 -1.196 -0.228 -1.651 -0.683 l -9.44 -9.44 c -0.441 -0.441 -0.684 -1.027 -0.684 -1.651 s 0.242 -1.21 0.684 -1.651 l 9.277 -9.277 H 2.335 C 1.048 54.011 0 52.963 0 51.676 V 38.325 c 0 -1.288 1.048 -2.335 2.335 -2.335 H 56.53 l -9.277 -9.278 c -0.441 -0.441 -0.684 -1.027 -0.684 -1.651 c 0 -0.624 0.242 -1.21 0.684 -1.651 l 9.44 -9.44 c 0.91 -0.911 2.393 -0.911 3.303 0 l 29.33 29.329 c 0.459 0.46 0.697 1.078 0.672 1.74 c 0.025 0.585 -0.213 1.203 -0.672 1.663 l -29.33 29.33 C 59.541 76.486 58.942 76.714 58.345 76.714 z M 2.335 37.989 C 2.15 37.989 2 38.14 2 38.325 v 13.351 c 0 0.185 0.15 0.335 0.335 0.335 h 59.023 L 48.667 64.702 c -0.131 0.131 -0.131 0.344 0 0.475 l 9.44 9.44 c 0.131 0.131 0.344 0.131 0.475 0 l 29.329 -29.329 c 0.078 -0.078 0.092 -0.18 0.089 -0.25 c 0.003 -0.147 -0.011 -0.249 -0.09 -0.327 L 58.582 15.383 c -0.131 -0.131 -0.344 -0.131 -0.475 0 l -9.44 9.44 c -0.131 0.131 -0.131 0.343 0 0.474 l 12.691 12.692 H 2.335 z" style="stroke: none; stroke-width: 1; stroke-dasharray: none; stroke-linecap: butt; stroke-linejoin: miter; stroke-miterlimit: 10; fill: rgb(0,0,0); fill-rule: nonzero; opacity: 1;" transform=" matrix(1 0 0 1 0 0) " stroke-linecap="round" />
</g>
</svg>